<?xml version="1.0" encoding="UTF-8" standalone="no"?>
<!DOCTYPE svg PUBLIC "-//W3C//DTD SVG 1.1//EN"
 "http://www.w3.org/Graphics/SVG/1.1/DTD/svg11.dtd">
<!-- Generated by graphviz version 2.38.0 (20140413.2041)
 -->
<!-- Title: %3 Pages: 1 -->
<svg width="1023pt" height="1916pt"
 viewBox="0.00 0.00 1022.50 1916.00" xmlns="http://www.w3.org/2000/svg" xmlns:xlink="http://www.w3.org/1999/xlink">
<g id="graph0" class="graph" transform="scale(1 1) rotate(0) translate(4 1912)">
<title>%3</title>
<polygon fill="#333333" stroke="none" points="-4,4 -4,-1912 1018.5,-1912 1018.5,4 -4,4"/>
<!-- 3300 -->
<g id="node1" class="node"><title>3300</title>
<g id="a_node1"><a xlink:href="https://kennysoft.kr/WzComparerR2/Quest/3300.html" xlink:title="(Lv.90) 브로커와의 거래" target="_blank">
<polygon fill="#006699" stroke="white" points="396.5,-1908 238.5,-1908 238.5,-1872 396.5,-1872 396.5,-1908"/>
<text text-anchor="middle" x="317.5" y="-1886.3" font-family="Helvetica,sans-Serif" font-size="14.00" fill="white">(Lv.90) 브로커와의 거래</text>
</a>
</g>
</g>
<!-- 3301 -->
<g id="node2" class="node"><title>3301</title>
<g id="a_node2"><a xlink:href="https://kennysoft.kr/WzComparerR2/Quest/3301.html" xlink:title="(Lv.90) 제뉴미스트 협회장의 시험" target="_blank">
<polygon fill="#006699" stroke="white" points="310.5,-1836 98.5,-1836 98.5,-1800 310.5,-1800 310.5,-1836"/>
<text text-anchor="middle" x="204.5" y="-1814.3" font-family="Helvetica,sans-Serif" font-size="14.00" fill="white">(Lv.90) 제뉴미스트 협회장의 시험</text>
</a>
</g>
</g>
<!-- 3300&#45;&gt;3301 -->
<g id="edge1" class="edge"><title>3300&#45;&gt;3301</title>
<path fill="none" stroke="white" stroke-dasharray="5,2" d="M289.857,-1871.88C275.082,-1862.72 256.709,-1851.34 240.797,-1841.48"/>
<polygon fill="white" stroke="white" points="232.249,-1836.19 243.12,-1837.63 236.5,-1838.82 240.75,-1841.46 240.75,-1841.46 240.75,-1841.46 236.5,-1838.82 238.38,-1845.28 232.249,-1836.19 232.249,-1836.19"/>
</g>
<!-- 3303 -->
<g id="node3" class="node"><title>3303</title>
<g id="a_node3"><a xlink:href="https://kennysoft.kr/WzComparerR2/Quest/3303.html" xlink:title="(Lv.90) 알카드노 협회장의 시험" target="_blank">
<polygon fill="#006699" stroke="white" points="530.5,-1836 330.5,-1836 330.5,-1800 530.5,-1800 530.5,-1836"/>
<text text-anchor="middle" x="430.5" y="-1814.3" font-family="Helvetica,sans-Serif" font-size="14.00" fill="white">(Lv.90) 알카드노 협회장의 시험</text>
</a>
</g>
</g>
<!-- 3300&#45;&gt;3303 -->
<g id="edge2" class="edge"><title>3300&#45;&gt;3303</title>
<path fill="none" stroke="white" stroke-dasharray="5,2" d="M345.143,-1871.88C359.918,-1862.72 378.291,-1851.34 394.203,-1841.48"/>
<polygon fill="white" stroke="white" points="402.751,-1836.19 396.62,-1845.28 398.5,-1838.82 394.25,-1841.46 394.25,-1841.46 394.25,-1841.46 398.5,-1838.82 391.88,-1837.63 402.751,-1836.19 402.751,-1836.19"/>
</g>
<!-- 3302 -->
<g id="node4" class="node"><title>3302</title>
<g id="a_node4"><a xlink:href="https://kennysoft.kr/WzComparerR2/Quest/3302.html" xlink:title="(Lv.90) 제뉴미스트의 망토" target="_blank">
<polygon fill="#006699" stroke="white" points="284.5,-1692 114.5,-1692 114.5,-1656 284.5,-1656 284.5,-1692"/>
<text text-anchor="middle" x="199.5" y="-1670.3" font-family="Helvetica,sans-Serif" font-size="14.00" fill="white">(Lv.90) 제뉴미스트의 망토</text>
</a>
</g>
</g>
<!-- 3301&#45;&gt;3302 -->
<g id="edge3" class="edge"><title>3301&#45;&gt;3302</title>
<path fill="none" stroke="white" stroke-dasharray="5,2" d="M203.897,-1799.87C203.045,-1775.67 201.479,-1731.21 200.465,-1702.39"/>
<polygon fill="white" stroke="white" points="200.105,-1692.19 204.954,-1702.02 200.281,-1697.19 200.457,-1702.18 200.457,-1702.18 200.457,-1702.18 200.281,-1697.19 195.96,-1702.34 200.105,-1692.19 200.105,-1692.19"/>
</g>
<!-- 3304 -->
<g id="node5" class="node"><title>3304</title>
<g id="a_node5"><a xlink:href="https://kennysoft.kr/WzComparerR2/Quest/3304.html" xlink:title="(Lv.90) 알카드노의 망토" target="_blank">
<polygon fill="#006699" stroke="white" points="572.5,-1764 414.5,-1764 414.5,-1728 572.5,-1728 572.5,-1764"/>
<text text-anchor="middle" x="493.5" y="-1742.3" font-family="Helvetica,sans-Serif" font-size="14.00" fill="white">(Lv.90) 알카드노의 망토</text>
</a>
</g>
</g>
<!-- 3303&#45;&gt;3304 -->
<g id="edge4" class="edge"><title>3303&#45;&gt;3304</title>
<path fill="none" stroke="white" stroke-dasharray="5,2" d="M446.073,-1799.7C453.702,-1791.22 463.023,-1780.86 471.376,-1771.58"/>
<polygon fill="white" stroke="white" points="478.106,-1764.1 474.761,-1774.55 474.761,-1767.82 471.416,-1771.54 471.416,-1771.54 471.416,-1771.54 474.761,-1767.82 468.072,-1768.53 478.106,-1764.1 478.106,-1764.1"/>
</g>
<!-- 3305 -->
<g id="node6" class="node"><title>3305</title>
<g id="a_node6"><a xlink:href="https://kennysoft.kr/WzComparerR2/Quest/3305.html" xlink:title="(Lv.90) 제뉴미스트의 망토 다시 받기" target="_blank">
<polygon fill="#006699" stroke="white" points="229,-252 1.42109e-014,-252 1.42109e-014,-216 229,-216 229,-252"/>
<text text-anchor="middle" x="114.5" y="-230.3" font-family="Helvetica,sans-Serif" font-size="14.00" fill="white">(Lv.90) 제뉴미스트의 망토 다시 받기</text>
</a>
</g>
</g>
<!-- 3302&#45;&gt;3305 -->
<g id="edge5" class="edge"><title>3302&#45;&gt;3305</title>
<path fill="none" stroke="white" stroke-dasharray="5,2" d="M154.224,-1655.82C106.604,-1634.46 38.5,-1593.05 38.5,-1531 38.5,-1531 38.5,-1531 38.5,-377 38.5,-331.641 69.0166,-286.749 91.375,-259.946"/>
<polygon fill="white" stroke="white" points="98.0091,-252.228 94.9033,-262.744 94.7499,-256.019 91.4907,-259.811 91.4907,-259.811 91.4907,-259.811 94.7499,-256.019 88.0781,-256.878 98.0091,-252.228 98.0091,-252.228"/>
</g>
<!-- 3307 -->
<g id="node7" class="node"><title>3307</title>
<g id="a_node7"><a xlink:href="https://kennysoft.kr/WzComparerR2/Quest/3307.html" xlink:title="(Lv.90) 베딘의 연구 돕기" target="_blank">
<polygon fill="#006699" stroke="white" points="280,-1620 119,-1620 119,-1584 280,-1584 280,-1620"/>
<text text-anchor="middle" x="199.5" y="-1598.3" font-family="Helvetica,sans-Serif" font-size="14.00" fill="white">(Lv.90) 베딘의 연구 돕기</text>
</a>
</g>
</g>
<!-- 3302&#45;&gt;3307 -->
<g id="edge6" class="edge"><title>3302&#45;&gt;3307</title>
<path fill="none" stroke="white" stroke-dasharray="5,2" d="M199.5,-1655.7C199.5,-1647.98 199.5,-1638.71 199.5,-1630.11"/>
<polygon fill="white" stroke="white" points="199.5,-1620.1 204,-1630.1 199.5,-1625.1 199.5,-1630.1 199.5,-1630.1 199.5,-1630.1 199.5,-1625.1 195,-1630.1 199.5,-1620.1 199.5,-1620.1"/>
</g>
<!-- 3306 -->
<g id="node8" class="node"><title>3306</title>
<g id="a_node8"><a xlink:href="https://kennysoft.kr/WzComparerR2/Quest/3306.html" xlink:title="(Lv.90) 알카드노의 망토 다시 받기" target="_blank">
<polygon fill="#006699" stroke="white" points="705.5,-252 489.5,-252 489.5,-216 705.5,-216 705.5,-252"/>
<text text-anchor="middle" x="597.5" y="-230.3" font-family="Helvetica,sans-Serif" font-size="14.00" fill="white">(Lv.90) 알카드노의 망토 다시 받기</text>
</a>
</g>
</g>
<!-- 3304&#45;&gt;3306 -->
<g id="edge7" class="edge"><title>3304&#45;&gt;3306</title>
<path fill="none" stroke="white" stroke-dasharray="5,2" d="M572.674,-1741.86C664.226,-1733.49 802.5,-1704.1 802.5,-1603 802.5,-1603 802.5,-1603 802.5,-377 802.5,-312.919 733.974,-275.47 676.16,-255.278"/>
<polygon fill="white" stroke="white" points="666.618,-252.065 677.531,-250.992 671.356,-253.66 676.095,-255.256 676.095,-255.256 676.095,-255.256 671.356,-253.66 674.659,-259.521 666.618,-252.065 666.618,-252.065"/>
</g>
<!-- 3312 -->
<g id="node9" class="node"><title>3312</title>
<g id="a_node9"><a xlink:href="https://kennysoft.kr/WzComparerR2/Quest/3312.html" xlink:title="(Lv.90) 러셀론의 연구 재료" target="_blank">
<polygon fill="#006699" stroke="white" points="580.5,-1692 406.5,-1692 406.5,-1656 580.5,-1656 580.5,-1692"/>
<text text-anchor="middle" x="493.5" y="-1670.3" font-family="Helvetica,sans-Serif" font-size="14.00" fill="white">(Lv.90) 러셀론의 연구 재료</text>
</a>
</g>
</g>
<!-- 3304&#45;&gt;3312 -->
<g id="edge8" class="edge"><title>3304&#45;&gt;3312</title>
<path fill="none" stroke="white" stroke-dasharray="5,2" d="M493.5,-1727.7C493.5,-1719.98 493.5,-1710.71 493.5,-1702.11"/>
<polygon fill="white" stroke="white" points="493.5,-1692.1 498,-1702.1 493.5,-1697.1 493.5,-1702.1 493.5,-1702.1 493.5,-1702.1 493.5,-1697.1 489,-1702.1 493.5,-1692.1 493.5,-1692.1"/>
</g>
<!-- 3308 -->
<g id="node10" class="node"><title>3308</title>
<g id="a_node10"><a xlink:href="https://kennysoft.kr/WzComparerR2/Quest/3308.html" xlink:title="(Lv.90) 알카드노 방해하기" target="_blank">
<polygon fill="#006699" stroke="white" points="284.5,-1548 114.5,-1548 114.5,-1512 284.5,-1512 284.5,-1548"/>
<text text-anchor="middle" x="199.5" y="-1526.3" font-family="Helvetica,sans-Serif" font-size="14.00" fill="white">(Lv.90) 알카드노 방해하기</text>
</a>
</g>
</g>
<!-- 3307&#45;&gt;3308 -->
<g id="edge9" class="edge"><title>3307&#45;&gt;3308</title>
<path fill="none" stroke="white" stroke-dasharray="5,2" d="M199.5,-1583.7C199.5,-1575.98 199.5,-1566.71 199.5,-1558.11"/>
<polygon fill="white" stroke="white" points="199.5,-1548.1 204,-1558.1 199.5,-1553.1 199.5,-1558.1 199.5,-1558.1 199.5,-1558.1 199.5,-1553.1 195,-1558.1 199.5,-1548.1 199.5,-1548.1"/>
</g>
<!-- 3313 -->
<g id="node11" class="node"><title>3313</title>
<g id="a_node11"><a xlink:href="https://kennysoft.kr/WzComparerR2/Quest/3313.html" xlink:title="(Lv.90) 로이드 파괴하기" target="_blank">
<polygon fill="#006699" stroke="white" points="572.5,-1620 414.5,-1620 414.5,-1584 572.5,-1584 572.5,-1620"/>
<text text-anchor="middle" x="493.5" y="-1598.3" font-family="Helvetica,sans-Serif" font-size="14.00" fill="white">(Lv.90) 로이드 파괴하기</text>
</a>
</g>
</g>
<!-- 3312&#45;&gt;3313 -->
<g id="edge10" class="edge"><title>3312&#45;&gt;3313</title>
<path fill="none" stroke="white" stroke-dasharray="5,2" d="M493.5,-1655.7C493.5,-1647.98 493.5,-1638.71 493.5,-1630.11"/>
<polygon fill="white" stroke="white" points="493.5,-1620.1 498,-1630.1 493.5,-1625.1 493.5,-1630.1 493.5,-1630.1 493.5,-1630.1 493.5,-1625.1 489,-1630.1 493.5,-1620.1 493.5,-1620.1"/>
</g>
<!-- 3309 -->
<g id="node18" class="node"><title>3309</title>
<g id="a_node18"><a xlink:href="https://kennysoft.kr/WzComparerR2/Quest/3309.html" xlink:title="(Lv.90) 사건, 그리고 실종된 연금술사" target="_blank">
<polygon fill="#006699" stroke="white" points="316,-1476 83,-1476 83,-1440 316,-1440 316,-1476"/>
<text text-anchor="middle" x="199.5" y="-1454.3" font-family="Helvetica,sans-Serif" font-size="14.00" fill="white">(Lv.90) 사건, 그리고 실종된 연금술사</text>
</a>
</g>
</g>
<!-- 3308&#45;&gt;3309 -->
<g id="edge26" class="edge"><title>3308&#45;&gt;3309</title>
<path fill="none" stroke="white" stroke-dasharray="5,2" d="M199.5,-1511.7C199.5,-1503.98 199.5,-1494.71 199.5,-1486.11"/>
<polygon fill="white" stroke="white" points="199.5,-1476.1 204,-1486.1 199.5,-1481.1 199.5,-1486.1 199.5,-1486.1 199.5,-1486.1 199.5,-1481.1 195,-1486.1 199.5,-1476.1 199.5,-1476.1"/>
</g>
<!-- 3314 -->
<g id="node19" class="node"><title>3314</title>
<g id="a_node19"><a xlink:href="https://kennysoft.kr/WzComparerR2/Quest/3314.html" xlink:title="(Lv.90) 생명연금, 그리고 실종된 연금술사" target="_blank">
<polygon fill="#006699" stroke="white" points="622.5,-1548 364.5,-1548 364.5,-1512 622.5,-1512 622.5,-1548"/>
<text text-anchor="middle" x="493.5" y="-1526.3" font-family="Helvetica,sans-Serif" font-size="14.00" fill="white">(Lv.90) 생명연금, 그리고 실종된 연금술사</text>
</a>
</g>
</g>
<!-- 3313&#45;&gt;3314 -->
<g id="edge27" class="edge"><title>3313&#45;&gt;3314</title>
<path fill="none" stroke="white" stroke-dasharray="5,2" d="M493.5,-1583.7C493.5,-1575.98 493.5,-1566.71 493.5,-1558.11"/>
<polygon fill="white" stroke="white" points="493.5,-1548.1 498,-1558.1 493.5,-1553.1 493.5,-1558.1 493.5,-1558.1 493.5,-1558.1 493.5,-1553.1 489,-1558.1 493.5,-1548.1 493.5,-1548.1"/>
</g>
<!-- 3349 -->
<g id="node12" class="node"><title>3349</title>
<g id="a_node12"><a xlink:href="https://kennysoft.kr/WzComparerR2/Quest/3349.html" xlink:title="(Lv.93) 필리아를 위하여" target="_blank">
<polygon fill="#006699" stroke="white" points="394.5,-468 236.5,-468 236.5,-432 394.5,-432 394.5,-468"/>
<text text-anchor="middle" x="315.5" y="-446.3" font-family="Helvetica,sans-Serif" font-size="14.00" fill="white">(Lv.93) 필리아를 위하여</text>
</a>
</g>
</g>
<!-- 3349&#45;&gt;3305 -->
<g id="edge11" class="edge"><title>3349&#45;&gt;3305</title>
<path fill="none" stroke="white" stroke-dasharray="5,2" d="M248.649,-431.897C225.395,-423.692 200.222,-412.056 180.5,-396 139.135,-362.324 123.433,-298.511 117.672,-262.154"/>
<polygon fill="white" stroke="white" points="116.241,-252.245 122.124,-261.5 116.956,-257.194 117.67,-262.143 117.67,-262.143 117.67,-262.143 116.956,-257.194 113.217,-262.786 116.241,-252.245 116.241,-252.245"/>
</g>
<!-- 3349&#45;&gt;3306 -->
<g id="edge12" class="edge"><title>3349&#45;&gt;3306</title>
<path fill="none" stroke="white" stroke-dasharray="5,2" d="M394.681,-445.658C471.411,-440.561 579.976,-427.791 606.5,-396 637.841,-358.436 622.2,-297.135 609.115,-262.007"/>
<polygon fill="white" stroke="white" points="605.363,-252.418 613.197,-260.09 607.185,-257.074 609.007,-261.73 609.007,-261.73 609.007,-261.73 607.185,-257.074 604.816,-263.37 605.363,-252.418 605.363,-252.418"/>
</g>
<!-- 3347 -->
<g id="node13" class="node"><title>3347</title>
<g id="a_node13"><a xlink:href="https://kennysoft.kr/WzComparerR2/Quest/3347.html" xlink:title="(Lv.93) 제뉴미스트를 위하여" target="_blank">
<polygon fill="#006699" stroke="white" points="598,-396 415,-396 415,-360 598,-360 598,-396"/>
<text text-anchor="middle" x="506.5" y="-374.3" font-family="Helvetica,sans-Serif" font-size="14.00" fill="white">(Lv.93) 제뉴미스트를 위하여</text>
</a>
</g>
</g>
<!-- 3349&#45;&gt;3347 -->
<g id="edge13" class="edge"><title>3349&#45;&gt;3347</title>
<path fill="none" stroke="white" stroke-dasharray="5,2" d="M356.327,-431.876C381.994,-422.094 415.532,-409.765 444.432,-399.474"/>
<polygon fill="white" stroke="white" points="454.037,-396.068 446.115,-403.651 449.324,-397.739 444.611,-399.41 444.611,-399.41 444.611,-399.41 449.324,-397.739 443.108,-395.169 454.037,-396.068 454.037,-396.068"/>
</g>
<!-- 3348 -->
<g id="node14" class="node"><title>3348</title>
<g id="a_node14"><a xlink:href="https://kennysoft.kr/WzComparerR2/Quest/3348.html" xlink:title="(Lv.93) 알카드노를 위하여" target="_blank">
<polygon fill="#006699" stroke="white" points="312.5,-324 142.5,-324 142.5,-288 312.5,-288 312.5,-324"/>
<text text-anchor="middle" x="227.5" y="-302.3" font-family="Helvetica,sans-Serif" font-size="14.00" fill="white">(Lv.93) 알카드노를 위하여</text>
</a>
</g>
</g>
<!-- 3349&#45;&gt;3348 -->
<g id="edge14" class="edge"><title>3349&#45;&gt;3348</title>
<path fill="none" stroke="white" stroke-dasharray="5,2" d="M236.29,-435.252C214.411,-427.428 193.237,-415.175 180.5,-396 167.16,-375.917 180.716,-350.384 196.791,-331.821"/>
<polygon fill="white" stroke="white" points="203.764,-324.329 200.245,-334.715 200.357,-327.989 196.951,-331.649 196.951,-331.649 196.951,-331.649 200.357,-327.989 193.657,-328.584 203.764,-324.329 203.764,-324.329"/>
</g>
<!-- 3352 -->
<g id="node15" class="node"><title>3352</title>
<g id="a_node15"><a xlink:href="https://kennysoft.kr/WzComparerR2/Quest/3352.html" xlink:title="(Lv.93) 드랭의 노트 다시 얻기 &#160;" target="_blank">
<polygon fill="#006699" stroke="white" points="396.5,-396 198.5,-396 198.5,-360 396.5,-360 396.5,-396"/>
<text text-anchor="middle" x="297.5" y="-374.3" font-family="Helvetica,sans-Serif" font-size="14.00" fill="white">(Lv.93) 드랭의 노트 다시 얻기 &#160;</text>
</a>
</g>
</g>
<!-- 3349&#45;&gt;3352 -->
<g id="edge15" class="edge"><title>3349&#45;&gt;3352</title>
<path fill="none" stroke="white" stroke-dasharray="5,2" d="M311.051,-431.697C309.045,-423.898 306.631,-414.509 304.399,-405.829"/>
<polygon fill="white" stroke="white" points="301.898,-396.104 308.747,-404.669 303.143,-400.947 304.389,-405.789 304.389,-405.789 304.389,-405.789 303.143,-400.947 300.031,-406.91 301.898,-396.104 301.898,-396.104"/>
</g>
<!-- 3347&#45;&gt;3305 -->
<g id="edge16" class="edge"><title>3347&#45;&gt;3305</title>
<path fill="none" stroke="white" stroke-dasharray="5,2" d="M465.916,-359.887C442.735,-349.873 413.247,-336.73 387.5,-324 357.548,-309.191 352.591,-300.238 321.5,-288 286.24,-274.121 246.162,-262.879 210.725,-254.381"/>
<polygon fill="white" stroke="white" points="200.86,-252.056 211.626,-249.97 205.727,-253.203 210.594,-254.35 210.594,-254.35 210.594,-254.35 205.727,-253.203 209.562,-258.73 200.86,-252.056 200.86,-252.056"/>
</g>
<!-- 3347&#45;&gt;3306 -->
<g id="edge17" class="edge"><title>3347&#45;&gt;3306</title>
<path fill="none" stroke="white" stroke-dasharray="5,2" d="M442.542,-359.95C424.918,-351.996 407.824,-340.5 397.5,-324 389.013,-310.436 387.742,-300.68 397.5,-288 408.661,-273.496 442.622,-262.142 479.465,-253.728"/>
<polygon fill="white" stroke="white" points="489.397,-251.542 480.598,-258.086 484.514,-252.617 479.63,-253.691 479.63,-253.691 479.63,-253.691 484.514,-252.617 478.663,-249.296 489.397,-251.542 489.397,-251.542"/>
</g>
<!-- 3347&#45;&gt;3349 -->
<g id="edge19" class="edge"><title>3347&#45;&gt;3349</title>
<path fill="none" stroke="white" stroke-dasharray="5,2" d="M465.708,-396.111C440.01,-405.905 406.415,-418.255 377.482,-428.557"/>
<polygon fill="white" stroke="white" points="367.867,-431.966 375.789,-424.383 372.58,-430.295 377.293,-428.624 377.293,-428.624 377.293,-428.624 372.58,-430.295 378.796,-432.865 367.867,-431.966 367.867,-431.966"/>
</g>
<!-- 3347&#45;&gt;3348 -->
<g id="edge18" class="edge"><title>3347&#45;&gt;3348</title>
<path fill="none" stroke="white" stroke-dasharray="5,2" d="M432.718,-359.966C391.574,-349.909 340.585,-337.136 299.699,-326.654"/>
<polygon fill="white" stroke="white" points="289.803,-324.111 300.608,-322.242 294.646,-325.355 299.488,-326.6 299.488,-326.6 299.488,-326.6 294.646,-325.355 298.368,-330.958 289.803,-324.111 289.803,-324.111"/>
</g>
<!-- 3350 -->
<g id="node16" class="node"><title>3350</title>
<g id="a_node16"><a xlink:href="https://kennysoft.kr/WzComparerR2/Quest/3350.html" xlink:title="(Lv.93) 드랭의 노트 다시 얻기" target="_blank">
<polygon fill="#006699" stroke="white" points="598,-324 407,-324 407,-288 598,-288 598,-324"/>
<text text-anchor="middle" x="502.5" y="-302.3" font-family="Helvetica,sans-Serif" font-size="14.00" fill="white">(Lv.93) 드랭의 노트 다시 얻기</text>
</a>
</g>
</g>
<!-- 3347&#45;&gt;3350 -->
<g id="edge20" class="edge"><title>3347&#45;&gt;3350</title>
<path fill="none" stroke="white" stroke-dasharray="5,2" d="M505.511,-359.697C505.07,-351.983 504.541,-342.712 504.049,-334.112"/>
<polygon fill="white" stroke="white" points="503.477,-324.104 508.541,-333.831 503.763,-329.096 504.048,-334.088 504.048,-334.088 504.048,-334.088 503.763,-329.096 499.555,-334.345 503.477,-324.104 503.477,-324.104"/>
</g>
<!-- 3348&#45;&gt;3305 -->
<g id="edge21" class="edge"><title>3348&#45;&gt;3305</title>
<path fill="none" stroke="white" stroke-dasharray="5,2" d="M199.857,-287.876C185.082,-278.724 166.709,-267.342 150.797,-257.485"/>
<polygon fill="white" stroke="white" points="142.249,-252.19 153.12,-253.63 146.5,-254.823 150.75,-257.456 150.75,-257.456 150.75,-257.456 146.5,-254.823 148.38,-261.281 142.249,-252.19 142.249,-252.19"/>
</g>
<!-- 3348&#45;&gt;3306 -->
<g id="edge22" class="edge"><title>3348&#45;&gt;3306</title>
<path fill="none" stroke="white" stroke-dasharray="5,2" d="M312.85,-288.853C367.927,-278.433 439.8,-264.835 497.544,-253.911"/>
<polygon fill="white" stroke="white" points="507.418,-252.043 498.428,-258.323 502.505,-252.972 497.592,-253.902 497.592,-253.902 497.592,-253.902 502.505,-252.972 496.755,-249.48 507.418,-252.043 507.418,-252.043"/>
</g>
<!-- 3348&#45;&gt;3349 -->
<g id="edge24" class="edge"><title>3348&#45;&gt;3349</title>
<path fill="none" stroke="white" stroke-dasharray="5,2" d="M217.031,-324.329C203.138,-342.978 183.255,-373.048 198.5,-396 207.634,-409.751 221.107,-419.942 235.707,-427.493"/>
<polygon fill="white" stroke="white" points="244.914,-431.862 233.95,-431.64 240.397,-429.718 235.879,-427.575 235.879,-427.575 235.879,-427.575 240.397,-429.718 237.808,-423.509 244.914,-431.862 244.914,-431.862"/>
</g>
<!-- 3348&#45;&gt;3347 -->
<g id="edge23" class="edge"><title>3348&#45;&gt;3347</title>
<path fill="none" stroke="white" stroke-dasharray="5,2" d="M301.594,-324.111C342.788,-334.181 393.776,-346.955 434.611,-357.425"/>
<polygon fill="white" stroke="white" points="444.493,-359.966 433.688,-361.834 439.651,-358.721 434.808,-357.476 434.808,-357.476 434.808,-357.476 439.651,-358.721 435.929,-353.118 444.493,-359.966 444.493,-359.966"/>
</g>
<!-- 3351 -->
<g id="node17" class="node"><title>3351</title>
<g id="a_node17"><a xlink:href="https://kennysoft.kr/WzComparerR2/Quest/3351.html" xlink:title="(Lv.93) 드랭의 노트 다시 얻기 " target="_blank">
<polygon fill="#006699" stroke="white" points="441.5,-252 247.5,-252 247.5,-216 441.5,-216 441.5,-252"/>
<text text-anchor="middle" x="344.5" y="-230.3" font-family="Helvetica,sans-Serif" font-size="14.00" fill="white">(Lv.93) 드랭의 노트 다시 얻기 </text>
</a>
</g>
</g>
<!-- 3348&#45;&gt;3351 -->
<g id="edge25" class="edge"><title>3348&#45;&gt;3351</title>
<path fill="none" stroke="white" stroke-dasharray="5,2" d="M256.121,-287.876C271.419,-278.724 290.443,-267.342 306.918,-257.485"/>
<polygon fill="white" stroke="white" points="315.769,-252.19 309.498,-261.186 311.478,-254.757 307.187,-257.324 307.187,-257.324 307.187,-257.324 311.478,-254.757 304.877,-253.462 315.769,-252.19 315.769,-252.19"/>
</g>
<!-- 3310 -->
<g id="node22" class="node"><title>3310</title>
<g id="a_node22"><a xlink:href="https://kennysoft.kr/WzComparerR2/Quest/3310.html" xlink:title="(Lv.90) 카슨의 시험" target="_blank">
<polygon fill="#006699" stroke="white" points="252.5,-1404 120.5,-1404 120.5,-1368 252.5,-1368 252.5,-1404"/>
<text text-anchor="middle" x="186.5" y="-1382.3" font-family="Helvetica,sans-Serif" font-size="14.00" fill="white">(Lv.90) 카슨의 시험</text>
</a>
</g>
</g>
<!-- 3309&#45;&gt;3310 -->
<g id="edge32" class="edge"><title>3309&#45;&gt;3310</title>
<path fill="none" stroke="white" stroke-dasharray="5,2" d="M196.287,-1439.7C194.854,-1431.98 193.132,-1422.71 191.535,-1414.11"/>
<polygon fill="white" stroke="white" points="189.677,-1404.1 195.927,-1413.11 190.59,-1409.02 191.503,-1413.94 191.503,-1413.94 191.503,-1413.94 190.59,-1409.02 187.078,-1414.76 189.677,-1404.1 189.677,-1404.1"/>
</g>
<!-- 3319 -->
<g id="node23" class="node"><title>3319</title>
<g id="a_node23"><a xlink:href="https://kennysoft.kr/WzComparerR2/Quest/3319.html" xlink:title="(Lv.90) 파웬의 실험실" target="_blank">
<polygon fill="#006699" stroke="white" points="416,-1404 271,-1404 271,-1368 416,-1368 416,-1404"/>
<text text-anchor="middle" x="343.5" y="-1382.3" font-family="Helvetica,sans-Serif" font-size="14.00" fill="white">(Lv.90) 파웬의 실험실</text>
</a>
</g>
</g>
<!-- 3309&#45;&gt;3319 -->
<g id="edge33" class="edge"><title>3309&#45;&gt;3319</title>
<path fill="none" stroke="white" stroke-dasharray="5,2" d="M234.726,-1439.88C254.077,-1430.47 278.273,-1418.71 298.927,-1408.67"/>
<polygon fill="white" stroke="white" points="308.138,-1404.19 301.112,-1412.61 303.641,-1406.38 299.145,-1408.56 299.145,-1408.56 299.145,-1408.56 303.641,-1406.38 297.177,-1404.51 308.138,-1404.19 308.138,-1404.19"/>
</g>
<!-- 3314&#45;&gt;3319 -->
<g id="edge35" class="edge"><title>3314&#45;&gt;3319</title>
<path fill="none" stroke="white" stroke-dasharray="5,2" d="M454.044,-1511.87C436.338,-1502.91 415.997,-1490.72 400.5,-1476 381.492,-1457.95 365.948,-1432.33 355.921,-1413.21"/>
<polygon fill="white" stroke="white" points="351.321,-1404.14 359.858,-1411.02 353.583,-1408.6 355.845,-1413.06 355.845,-1413.06 355.845,-1413.06 353.583,-1408.6 351.832,-1415.09 351.321,-1404.14 351.321,-1404.14"/>
</g>
<!-- 3315 -->
<g id="node24" class="node"><title>3315</title>
<g id="a_node24"><a xlink:href="https://kennysoft.kr/WzComparerR2/Quest/3315.html" xlink:title="(Lv.90) 매드의 시험" target="_blank">
<polygon fill="#006699" stroke="white" points="711.5,-1476 579.5,-1476 579.5,-1440 711.5,-1440 711.5,-1476"/>
<text text-anchor="middle" x="645.5" y="-1454.3" font-family="Helvetica,sans-Serif" font-size="14.00" fill="white">(Lv.90) 매드의 시험</text>
</a>
</g>
</g>
<!-- 3314&#45;&gt;3315 -->
<g id="edge34" class="edge"><title>3314&#45;&gt;3315</title>
<path fill="none" stroke="white" stroke-dasharray="5,2" d="M530.683,-1511.88C551.37,-1502.35 577.302,-1490.41 599.285,-1480.28"/>
<polygon fill="white" stroke="white" points="608.437,-1476.07 601.237,-1484.34 603.896,-1478.16 599.354,-1480.25 599.354,-1480.25 599.354,-1480.25 603.896,-1478.16 597.472,-1476.16 608.437,-1476.07 608.437,-1476.07"/>
</g>
<!-- 3346 -->
<g id="node20" class="node"><title>3346</title>
<g id="a_node20"><a xlink:href="https://kennysoft.kr/WzComparerR2/Quest/3346.html" xlink:title="(Lv.93) 잔인한 진실" target="_blank">
<polygon fill="#006699" stroke="white" points="400.5,-540 268.5,-540 268.5,-504 400.5,-504 400.5,-540"/>
<text text-anchor="middle" x="334.5" y="-518.3" font-family="Helvetica,sans-Serif" font-size="14.00" fill="white">(Lv.93) 잔인한 진실</text>
</a>
</g>
</g>
<!-- 3346&#45;&gt;3349 -->
<g id="edge30" class="edge"><title>3346&#45;&gt;3349</title>
<path fill="none" stroke="white" stroke-dasharray="5,2" d="M329.803,-503.697C327.687,-495.898 325.138,-486.509 322.782,-477.829"/>
<polygon fill="white" stroke="white" points="320.143,-468.104 327.105,-476.576 321.452,-472.93 322.762,-477.755 322.762,-477.755 322.762,-477.755 321.452,-472.93 318.419,-478.934 320.143,-468.104 320.143,-468.104"/>
</g>
<!-- 3346&#45;&gt;3347 -->
<g id="edge28" class="edge"><title>3346&#45;&gt;3347</title>
<path fill="none" stroke="white" stroke-dasharray="5,2" d="M357.443,-503.899C370.993,-493.672 388.395,-480.31 403.5,-468 429.862,-446.516 459.131,-421.064 479.71,-402.893"/>
<polygon fill="white" stroke="white" points="487.419,-396.068 482.915,-406.066 483.676,-399.382 479.932,-402.697 479.932,-402.697 479.932,-402.697 483.676,-399.382 476.949,-399.328 487.419,-396.068 487.419,-396.068"/>
</g>
<!-- 3346&#45;&gt;3348 -->
<g id="edge29" class="edge"><title>3346&#45;&gt;3348</title>
<path fill="none" stroke="white" stroke-dasharray="5,2" d="M286.964,-503.958C267.107,-495.273 244.705,-483.28 227.5,-468 198.927,-442.625 191.397,-432.628 180.5,-396 175.938,-380.664 174.823,-374.959 180.5,-360 184.468,-349.544 191.548,-339.829 199.028,-331.647"/>
<polygon fill="white" stroke="white" points="206.233,-324.299 202.445,-334.59 202.733,-327.869 199.232,-331.439 199.232,-331.439 199.232,-331.439 202.733,-327.869 196.019,-328.288 206.233,-324.299 206.233,-324.299"/>
</g>
<!-- 3353 -->
<g id="node21" class="node"><title>3353</title>
<g id="a_node21"><a xlink:href="https://kennysoft.kr/WzComparerR2/Quest/3353.html" xlink:title="(Lv.93) 드랭이 바라는 것" target="_blank">
<polygon fill="#006699" stroke="white" points="710,-468 549,-468 549,-432 710,-432 710,-468"/>
<text text-anchor="middle" x="629.5" y="-446.3" font-family="Helvetica,sans-Serif" font-size="14.00" fill="white">(Lv.93) 드랭이 바라는 것</text>
</a>
</g>
</g>
<!-- 3346&#45;&gt;3353 -->
<g id="edge31" class="edge"><title>3346&#45;&gt;3353</title>
<path fill="none" stroke="white" stroke-dasharray="5,2" d="M400.704,-505.291C444.226,-494.963 501.481,-481.377 547.827,-470.38"/>
<polygon fill="white" stroke="white" points="557.843,-468.003 549.152,-474.691 552.978,-469.158 548.113,-470.312 548.113,-470.312 548.113,-470.312 552.978,-469.158 547.074,-465.934 557.843,-468.003 557.843,-468.003"/>
</g>
<!-- 3354 -->
<g id="node25" class="node"><title>3354</title>
<g id="a_node25"><a xlink:href="https://kennysoft.kr/WzComparerR2/Quest/3354.html" xlink:title="(Lv.93) 드랭의 약" target="_blank">
<polygon fill="#006699" stroke="white" points="774,-396 655,-396 655,-360 774,-360 774,-396"/>
<text text-anchor="middle" x="714.5" y="-374.3" font-family="Helvetica,sans-Serif" font-size="14.00" fill="white">(Lv.93) 드랭의 약</text>
</a>
</g>
</g>
<!-- 3353&#45;&gt;3354 -->
<g id="edge36" class="edge"><title>3353&#45;&gt;3354</title>
<path fill="none" stroke="white" stroke-dasharray="5,2" d="M650.511,-431.697C661.216,-422.881 674.39,-412.032 685.996,-402.474"/>
<polygon fill="white" stroke="white" points="693.73,-396.104 688.872,-405.935 689.871,-399.283 686.011,-402.461 686.011,-402.461 686.011,-402.461 689.871,-399.283 683.15,-398.988 693.73,-396.104 693.73,-396.104"/>
</g>
<!-- 3311 -->
<g id="node27" class="node"><title>3311</title>
<g id="a_node27"><a xlink:href="https://kennysoft.kr/WzComparerR2/Quest/3311.html" xlink:title="(Lv.90) 단서" target="_blank">
<polygon fill="#006699" stroke="white" points="268.5,-1332 178.5,-1332 178.5,-1296 268.5,-1296 268.5,-1332"/>
<text text-anchor="middle" x="223.5" y="-1310.3" font-family="Helvetica,sans-Serif" font-size="14.00" fill="white">(Lv.90) 단서</text>
</a>
</g>
</g>
<!-- 3310&#45;&gt;3311 -->
<g id="edge38" class="edge"><title>3310&#45;&gt;3311</title>
<path fill="none" stroke="white" stroke-dasharray="5,2" d="M195.646,-1367.7C199.903,-1359.64 205.056,-1349.89 209.766,-1340.98"/>
<polygon fill="white" stroke="white" points="214.459,-1332.1 213.764,-1343.05 212.123,-1336.52 209.786,-1340.95 209.786,-1340.95 209.786,-1340.95 212.123,-1336.52 205.808,-1338.84 214.459,-1332.1 214.459,-1332.1"/>
</g>
<!-- 3320 -->
<g id="node28" class="node"><title>3320</title>
<g id="a_node28"><a xlink:href="https://kennysoft.kr/WzComparerR2/Quest/3320.html" xlink:title="(Lv.90) 파웬이 알고 있는 것" target="_blank">
<polygon fill="#006699" stroke="white" points="423.5,-1260 245.5,-1260 245.5,-1224 423.5,-1224 423.5,-1260"/>
<text text-anchor="middle" x="334.5" y="-1238.3" font-family="Helvetica,sans-Serif" font-size="14.00" fill="white">(Lv.90) 파웬이 알고 있는 것</text>
</a>
</g>
</g>
<!-- 3319&#45;&gt;3320 -->
<g id="edge39" class="edge"><title>3319&#45;&gt;3320</title>
<path fill="none" stroke="white" stroke-dasharray="5,2" d="M342.414,-1367.87C340.881,-1343.67 338.063,-1299.21 336.236,-1270.39"/>
<polygon fill="white" stroke="white" points="335.589,-1260.19 340.713,-1269.88 335.906,-1265.18 336.222,-1270.17 336.222,-1270.17 336.222,-1270.17 335.906,-1265.18 331.731,-1270.45 335.589,-1260.19 335.589,-1260.19"/>
</g>
<!-- 3316 -->
<g id="node29" class="node"><title>3316</title>
<g id="a_node29"><a xlink:href="https://kennysoft.kr/WzComparerR2/Quest/3316.html" xlink:title="(Lv.90) 브로커 한의 정보" target="_blank">
<polygon fill="#006699" stroke="white" points="758,-1404 597,-1404 597,-1368 758,-1368 758,-1404"/>
<text text-anchor="middle" x="677.5" y="-1382.3" font-family="Helvetica,sans-Serif" font-size="14.00" fill="white">(Lv.90) 브로커 한의 정보</text>
</a>
</g>
</g>
<!-- 3315&#45;&gt;3316 -->
<g id="edge40" class="edge"><title>3315&#45;&gt;3316</title>
<path fill="none" stroke="white" stroke-dasharray="5,2" d="M653.41,-1439.7C657.053,-1431.73 661.454,-1422.1 665.494,-1413.26"/>
<polygon fill="white" stroke="white" points="669.681,-1404.1 669.616,-1415.07 667.602,-1408.65 665.523,-1413.2 665.523,-1413.2 665.523,-1413.2 667.602,-1408.65 661.431,-1411.33 669.681,-1404.1 669.681,-1404.1"/>
</g>
<!-- 3355 -->
<g id="node30" class="node"><title>3355</title>
<g id="a_node30"><a xlink:href="https://kennysoft.kr/WzComparerR2/Quest/3355.html" xlink:title="(Lv.93) 휴머노이드 A의 기억" target="_blank">
<polygon fill="#006699" stroke="white" points="1014.5,-324 830.5,-324 830.5,-288 1014.5,-288 1014.5,-324"/>
<text text-anchor="middle" x="922.5" y="-302.3" font-family="Helvetica,sans-Serif" font-size="14.00" fill="white">(Lv.93) 휴머노이드 A의 기억</text>
</a>
</g>
</g>
<!-- 3354&#45;&gt;3355 -->
<g id="edge41" class="edge"><title>3354&#45;&gt;3355</title>
<path fill="none" stroke="white" stroke-dasharray="5,2" d="M765.117,-359.966C794.305,-350.142 831.191,-337.729 861.915,-327.389"/>
<polygon fill="white" stroke="white" points="871.656,-324.111 863.614,-331.565 866.918,-325.706 862.179,-327.3 862.179,-327.3 862.179,-327.3 866.918,-325.706 860.743,-323.036 871.656,-324.111 871.656,-324.111"/>
</g>
<!-- 3345 -->
<g id="node26" class="node"><title>3345</title>
<g id="a_node26"><a xlink:href="https://kennysoft.kr/WzComparerR2/Quest/3345.html" xlink:title="(Lv.93) 검은 마법사의 마법진" target="_blank">
<polygon fill="#006699" stroke="white" points="428,-612 241,-612 241,-576 428,-576 428,-612"/>
<text text-anchor="middle" x="334.5" y="-590.3" font-family="Helvetica,sans-Serif" font-size="14.00" fill="white">(Lv.93) 검은 마법사의 마법진</text>
</a>
</g>
</g>
<!-- 3345&#45;&gt;3346 -->
<g id="edge37" class="edge"><title>3345&#45;&gt;3346</title>
<path fill="none" stroke="white" stroke-dasharray="5,2" d="M334.5,-575.697C334.5,-567.983 334.5,-558.712 334.5,-550.112"/>
<polygon fill="white" stroke="white" points="334.5,-540.104 339,-550.104 334.5,-545.104 334.5,-550.104 334.5,-550.104 334.5,-550.104 334.5,-545.104 330,-550.104 334.5,-540.104 334.5,-540.104"/>
</g>
<!-- 3311&#45;&gt;3320 -->
<g id="edge43" class="edge"><title>3311&#45;&gt;3320</title>
<path fill="none" stroke="white" stroke-dasharray="5,2" d="M250.654,-1295.88C265.033,-1286.81 282.881,-1275.55 298.41,-1265.76"/>
<polygon fill="white" stroke="white" points="307.242,-1260.19 301.184,-1269.33 303.013,-1262.86 298.783,-1265.52 298.783,-1265.52 298.783,-1265.52 303.013,-1262.86 296.383,-1261.72 307.242,-1260.19 307.242,-1260.19"/>
</g>
<!-- 3321 -->
<g id="node32" class="node"><title>3321</title>
<g id="a_node32"><a xlink:href="https://kennysoft.kr/WzComparerR2/Quest/3321.html" xlink:title="(Lv.90) 실종된 연금술사, 드랭" target="_blank">
<polygon fill="#006699" stroke="white" points="430,-1188 239,-1188 239,-1152 430,-1152 430,-1188"/>
<text text-anchor="middle" x="334.5" y="-1166.3" font-family="Helvetica,sans-Serif" font-size="14.00" fill="white">(Lv.90) 실종된 연금술사, 드랭</text>
</a>
</g>
</g>
<!-- 3320&#45;&gt;3321 -->
<g id="edge44" class="edge"><title>3320&#45;&gt;3321</title>
<path fill="none" stroke="white" stroke-dasharray="5,2" d="M334.5,-1223.7C334.5,-1215.98 334.5,-1206.71 334.5,-1198.11"/>
<polygon fill="white" stroke="white" points="334.5,-1188.1 339,-1198.1 334.5,-1193.1 334.5,-1198.1 334.5,-1198.1 334.5,-1198.1 334.5,-1193.1 330,-1198.1 334.5,-1188.1 334.5,-1188.1"/>
</g>
<!-- 3317 -->
<g id="node35" class="node"><title>3317</title>
<g id="a_node35"><a xlink:href="https://kennysoft.kr/WzComparerR2/Quest/3317.html" xlink:title="(Lv.90) 드랭의 친구" target="_blank">
<polygon fill="#006699" stroke="white" points="742.5,-1332 610.5,-1332 610.5,-1296 742.5,-1296 742.5,-1332"/>
<text text-anchor="middle" x="676.5" y="-1310.3" font-family="Helvetica,sans-Serif" font-size="14.00" fill="white">(Lv.90) 드랭의 친구</text>
</a>
</g>
</g>
<!-- 3316&#45;&gt;3317 -->
<g id="edge47" class="edge"><title>3316&#45;&gt;3317</title>
<path fill="none" stroke="white" stroke-dasharray="5,2" d="M677.253,-1367.7C677.143,-1359.98 677.01,-1350.71 676.887,-1342.11"/>
<polygon fill="white" stroke="white" points="676.744,-1332.1 681.387,-1342.04 676.816,-1337.1 676.887,-1342.1 676.887,-1342.1 676.887,-1342.1 676.816,-1337.1 672.388,-1342.17 676.744,-1332.1 676.744,-1332.1"/>
</g>
<!-- 3356 -->
<g id="node36" class="node"><title>3356</title>
<g id="a_node36"><a xlink:href="https://kennysoft.kr/WzComparerR2/Quest/3356.html" xlink:title="(Lv.93) 드랭은 누구인가" target="_blank">
<polygon fill="#006699" stroke="white" points="1001.5,-252 843.5,-252 843.5,-216 1001.5,-216 1001.5,-252"/>
<text text-anchor="middle" x="922.5" y="-230.3" font-family="Helvetica,sans-Serif" font-size="14.00" fill="white">(Lv.93) 드랭은 누구인가</text>
</a>
</g>
</g>
<!-- 3355&#45;&gt;3356 -->
<g id="edge48" class="edge"><title>3355&#45;&gt;3356</title>
<path fill="none" stroke="white" stroke-dasharray="5,2" d="M922.5,-287.697C922.5,-279.983 922.5,-270.712 922.5,-262.112"/>
<polygon fill="white" stroke="white" points="922.5,-252.104 927,-262.104 922.5,-257.104 922.5,-262.104 922.5,-262.104 922.5,-262.104 922.5,-257.104 918,-262.104 922.5,-252.104 922.5,-252.104"/>
</g>
<!-- 3344 -->
<g id="node31" class="node"><title>3344</title>
<g id="a_node31"><a xlink:href="https://kennysoft.kr/WzComparerR2/Quest/3344.html" xlink:title="(Lv.93) 마가티아의 비밀" target="_blank">
<polygon fill="#006699" stroke="white" points="413.5,-684 255.5,-684 255.5,-648 413.5,-648 413.5,-684"/>
<text text-anchor="middle" x="334.5" y="-662.3" font-family="Helvetica,sans-Serif" font-size="14.00" fill="white">(Lv.93) 마가티아의 비밀</text>
</a>
</g>
</g>
<!-- 3344&#45;&gt;3345 -->
<g id="edge42" class="edge"><title>3344&#45;&gt;3345</title>
<path fill="none" stroke="white" stroke-dasharray="5,2" d="M334.5,-647.697C334.5,-639.983 334.5,-630.712 334.5,-622.112"/>
<polygon fill="white" stroke="white" points="334.5,-612.104 339,-622.104 334.5,-617.104 334.5,-622.104 334.5,-622.104 334.5,-622.104 334.5,-617.104 330,-622.104 334.5,-612.104 334.5,-612.104"/>
</g>
<!-- 3322 -->
<g id="node38" class="node"><title>3322</title>
<g id="a_node38"><a xlink:href="https://kennysoft.kr/WzComparerR2/Quest/3322.html" xlink:title="(Lv.90) 필리아의 펜던트" target="_blank">
<polygon fill="#006699" stroke="white" points="413.5,-1116 255.5,-1116 255.5,-1080 413.5,-1080 413.5,-1116"/>
<text text-anchor="middle" x="334.5" y="-1094.3" font-family="Helvetica,sans-Serif" font-size="14.00" fill="white">(Lv.90) 필리아의 펜던트</text>
</a>
</g>
</g>
<!-- 3321&#45;&gt;3322 -->
<g id="edge50" class="edge"><title>3321&#45;&gt;3322</title>
<path fill="none" stroke="white" stroke-dasharray="5,2" d="M334.5,-1151.7C334.5,-1143.98 334.5,-1134.71 334.5,-1126.11"/>
<polygon fill="white" stroke="white" points="334.5,-1116.1 339,-1126.1 334.5,-1121.1 334.5,-1126.1 334.5,-1126.1 334.5,-1126.1 334.5,-1121.1 330,-1126.1 334.5,-1116.1 334.5,-1116.1"/>
</g>
<!-- 3318 -->
<g id="node33" class="node"><title>3318</title>
<g id="a_node33"><a xlink:href="https://kennysoft.kr/WzComparerR2/Quest/3318.html" xlink:title="(Lv.90) 유령 파웬" target="_blank">
<polygon fill="#006699" stroke="white" points="529,-1476 410,-1476 410,-1440 529,-1440 529,-1476"/>
<text text-anchor="middle" x="469.5" y="-1454.3" font-family="Helvetica,sans-Serif" font-size="14.00" fill="white">(Lv.90) 유령 파웬</text>
</a>
</g>
</g>
<!-- 3318&#45;&gt;3319 -->
<g id="edge45" class="edge"><title>3318&#45;&gt;3319</title>
<path fill="none" stroke="white" stroke-dasharray="5,2" d="M438.677,-1439.88C422.05,-1430.64 401.335,-1419.13 383.481,-1409.21"/>
<polygon fill="white" stroke="white" points="374.442,-1404.19 385.369,-1405.11 378.812,-1406.62 383.183,-1409.05 383.183,-1409.05 383.183,-1409.05 378.812,-1406.62 380.998,-1412.98 374.442,-1404.19 374.442,-1404.19"/>
</g>
<!-- 3358 -->
<g id="node34" class="node"><title>3358</title>
<g id="a_node34"><a xlink:href="https://kennysoft.kr/WzComparerR2/Quest/3358.html" xlink:title="(Lv.90) 파웬의 출입증" target="_blank">
<polygon fill="#006699" stroke="white" points="579,-1404 434,-1404 434,-1368 579,-1368 579,-1404"/>
<text text-anchor="middle" x="506.5" y="-1382.3" font-family="Helvetica,sans-Serif" font-size="14.00" fill="white">(Lv.90) 파웬의 출입증</text>
</a>
</g>
</g>
<!-- 3318&#45;&gt;3358 -->
<g id="edge46" class="edge"><title>3318&#45;&gt;3358</title>
<path fill="none" stroke="white" stroke-dasharray="5,2" d="M478.646,-1439.7C482.903,-1431.64 488.056,-1421.89 492.766,-1412.98"/>
<polygon fill="white" stroke="white" points="497.459,-1404.1 496.764,-1415.05 495.123,-1408.52 492.786,-1412.95 492.786,-1412.95 492.786,-1412.95 495.123,-1408.52 488.808,-1410.84 497.459,-1404.1 497.459,-1404.1"/>
</g>
<!-- 3359 -->
<g id="node39" class="node"><title>3359</title>
<g id="a_node39"><a xlink:href="https://kennysoft.kr/WzComparerR2/Quest/3359.html" xlink:title="(Lv.90) 마스터키를 찾아서" target="_blank">
<polygon fill="#006699" stroke="white" points="591.5,-1332 421.5,-1332 421.5,-1296 591.5,-1296 591.5,-1332"/>
<text text-anchor="middle" x="506.5" y="-1310.3" font-family="Helvetica,sans-Serif" font-size="14.00" fill="white">(Lv.90) 마스터키를 찾아서</text>
</a>
</g>
</g>
<!-- 3358&#45;&gt;3359 -->
<g id="edge52" class="edge"><title>3358&#45;&gt;3359</title>
<path fill="none" stroke="white" stroke-dasharray="5,2" d="M506.5,-1367.7C506.5,-1359.98 506.5,-1350.71 506.5,-1342.11"/>
<polygon fill="white" stroke="white" points="506.5,-1332.1 511,-1342.1 506.5,-1337.1 506.5,-1342.1 506.5,-1342.1 506.5,-1342.1 506.5,-1337.1 502,-1342.1 506.5,-1332.1 506.5,-1332.1"/>
</g>
<!-- 3317&#45;&gt;3320 -->
<g id="edge51" class="edge"><title>3317&#45;&gt;3320</title>
<path fill="none" stroke="white" stroke-dasharray="5,2" d="M610.201,-1298.07C606.922,-1297.37 603.675,-1296.67 600.5,-1296 545,-1284.27 482.83,-1271.84 432.558,-1261.97"/>
<polygon fill="white" stroke="white" points="422.667,-1260.03 433.346,-1257.54 427.574,-1260.99 432.48,-1261.95 432.48,-1261.95 432.48,-1261.95 427.574,-1260.99 431.615,-1266.37 422.667,-1260.03 422.667,-1260.03"/>
</g>
<!-- 3357 -->
<g id="node40" class="node"><title>3357</title>
<g id="a_node40"><a xlink:href="https://kennysoft.kr/WzComparerR2/Quest/3357.html" xlink:title="(Lv.93) 드랭과 휴머노이드 A" target="_blank">
<polygon fill="#006699" stroke="white" points="1014.5,-180 830.5,-180 830.5,-144 1014.5,-144 1014.5,-180"/>
<text text-anchor="middle" x="922.5" y="-158.3" font-family="Helvetica,sans-Serif" font-size="14.00" fill="white">(Lv.93) 드랭과 휴머노이드 A</text>
</a>
</g>
</g>
<!-- 3356&#45;&gt;3357 -->
<g id="edge53" class="edge"><title>3356&#45;&gt;3357</title>
<path fill="none" stroke="white" stroke-dasharray="5,2" d="M922.5,-215.697C922.5,-207.983 922.5,-198.712 922.5,-190.112"/>
<polygon fill="white" stroke="white" points="922.5,-180.104 927,-190.104 922.5,-185.104 922.5,-190.104 922.5,-190.104 922.5,-190.104 922.5,-185.104 918,-190.104 922.5,-180.104 922.5,-180.104"/>
</g>
<!-- 3343 -->
<g id="node37" class="node"><title>3343</title>
<g id="a_node37"><a xlink:href="https://kennysoft.kr/WzComparerR2/Quest/3343.html" xlink:title="(Lv.93) 감춰진 글자" target="_blank">
<polygon fill="#006699" stroke="white" points="400.5,-756 268.5,-756 268.5,-720 400.5,-720 400.5,-756"/>
<text text-anchor="middle" x="334.5" y="-734.3" font-family="Helvetica,sans-Serif" font-size="14.00" fill="white">(Lv.93) 감춰진 글자</text>
</a>
</g>
</g>
<!-- 3343&#45;&gt;3344 -->
<g id="edge49" class="edge"><title>3343&#45;&gt;3344</title>
<path fill="none" stroke="white" stroke-dasharray="5,2" d="M334.5,-719.697C334.5,-711.983 334.5,-702.712 334.5,-694.112"/>
<polygon fill="white" stroke="white" points="334.5,-684.104 339,-694.104 334.5,-689.104 334.5,-694.104 334.5,-694.104 334.5,-694.104 334.5,-689.104 330,-694.104 334.5,-684.104 334.5,-684.104"/>
</g>
<!-- 3339 -->
<g id="node42" class="node"><title>3339</title>
<g id="a_node42"><a xlink:href="https://kennysoft.kr/WzComparerR2/Quest/3339.html" xlink:title="(Lv.93) 드랭의 지하 서재" target="_blank">
<polygon fill="#006699" stroke="white" points="415,-1044 254,-1044 254,-1008 415,-1008 415,-1044"/>
<text text-anchor="middle" x="334.5" y="-1022.3" font-family="Helvetica,sans-Serif" font-size="14.00" fill="white">(Lv.93) 드랭의 지하 서재</text>
</a>
</g>
</g>
<!-- 3322&#45;&gt;3339 -->
<g id="edge55" class="edge"><title>3322&#45;&gt;3339</title>
<path fill="none" stroke="white" stroke-dasharray="5,2" d="M334.5,-1079.7C334.5,-1071.98 334.5,-1062.71 334.5,-1054.11"/>
<polygon fill="white" stroke="white" points="334.5,-1044.1 339,-1054.1 334.5,-1049.1 334.5,-1054.1 334.5,-1054.1 334.5,-1054.1 334.5,-1049.1 330,-1054.1 334.5,-1044.1 334.5,-1044.1"/>
</g>
<!-- 3360 -->
<g id="node43" class="node"><title>3360</title>
<g id="a_node43"><a xlink:href="https://kennysoft.kr/WzComparerR2/Quest/3360.html" xlink:title="(Lv.90) 비밀번호 인증" target="_blank">
<polygon fill="#006699" stroke="white" points="587,-1260 442,-1260 442,-1224 587,-1224 587,-1260"/>
<text text-anchor="middle" x="514.5" y="-1238.3" font-family="Helvetica,sans-Serif" font-size="14.00" fill="white">(Lv.90) 비밀번호 인증</text>
</a>
</g>
</g>
<!-- 3359&#45;&gt;3360 -->
<g id="edge56" class="edge"><title>3359&#45;&gt;3360</title>
<path fill="none" stroke="white" stroke-dasharray="5,2" d="M508.478,-1295.7C509.359,-1287.98 510.419,-1278.71 511.401,-1270.11"/>
<polygon fill="white" stroke="white" points="512.545,-1260.1 515.881,-1270.55 511.977,-1265.07 511.41,-1270.04 511.41,-1270.04 511.41,-1270.04 511.977,-1265.07 506.939,-1269.53 512.545,-1260.1 512.545,-1260.1"/>
</g>
<!-- 3386 -->
<g id="node44" class="node"><title>3386</title>
<g id="a_node44"><a xlink:href="https://kennysoft.kr/WzComparerR2/Quest/3386.html" xlink:title="[훈장] 마가티아의 연금술사" target="_blank">
<polygon fill="#006699" stroke="white" points="1008.5,-108 836.5,-108 836.5,-72 1008.5,-72 1008.5,-108"/>
<text text-anchor="middle" x="922.5" y="-86.3" font-family="Helvetica,sans-Serif" font-size="14.00" fill="white">[훈장] 마가티아의 연금술사</text>
</a>
</g>
</g>
<!-- 3357&#45;&gt;3386 -->
<g id="edge57" class="edge"><title>3357&#45;&gt;3386</title>
<path fill="none" stroke="white" stroke-dasharray="5,2" d="M922.5,-143.697C922.5,-135.983 922.5,-126.712 922.5,-118.112"/>
<polygon fill="white" stroke="white" points="922.5,-108.104 927,-118.104 922.5,-113.104 922.5,-118.104 922.5,-118.104 922.5,-118.104 922.5,-113.104 918,-118.104 922.5,-108.104 922.5,-108.104"/>
</g>
<!-- 3342 -->
<g id="node41" class="node"><title>3342</title>
<g id="a_node41"><a xlink:href="https://kennysoft.kr/WzComparerR2/Quest/3342.html" xlink:title="(Lv.93) 드랭의 진실" target="_blank">
<polygon fill="#006699" stroke="white" points="400.5,-828 268.5,-828 268.5,-792 400.5,-792 400.5,-828"/>
<text text-anchor="middle" x="334.5" y="-806.3" font-family="Helvetica,sans-Serif" font-size="14.00" fill="white">(Lv.93) 드랭의 진실</text>
</a>
</g>
</g>
<!-- 3342&#45;&gt;3343 -->
<g id="edge54" class="edge"><title>3342&#45;&gt;3343</title>
<path fill="none" stroke="white" stroke-dasharray="5,2" d="M334.5,-791.697C334.5,-783.983 334.5,-774.712 334.5,-766.112"/>
<polygon fill="white" stroke="white" points="334.5,-756.104 339,-766.104 334.5,-761.104 334.5,-766.104 334.5,-766.104 334.5,-766.104 334.5,-761.104 330,-766.104 334.5,-756.104 334.5,-756.104"/>
</g>
<!-- 3340 -->
<g id="node46" class="node"><title>3340</title>
<g id="a_node46"><a xlink:href="https://kennysoft.kr/WzComparerR2/Quest/3340.html" xlink:title="(Lv.93) 비밀책의 열쇠" target="_blank">
<polygon fill="#006699" stroke="white" points="407,-972 262,-972 262,-936 407,-936 407,-972"/>
<text text-anchor="middle" x="334.5" y="-950.3" font-family="Helvetica,sans-Serif" font-size="14.00" fill="white">(Lv.93) 비밀책의 열쇠</text>
</a>
</g>
</g>
<!-- 3339&#45;&gt;3340 -->
<g id="edge59" class="edge"><title>3339&#45;&gt;3340</title>
<path fill="none" stroke="white" stroke-dasharray="5,2" d="M334.5,-1007.7C334.5,-999.983 334.5,-990.712 334.5,-982.112"/>
<polygon fill="white" stroke="white" points="334.5,-972.104 339,-982.104 334.5,-977.104 334.5,-982.104 334.5,-982.104 334.5,-982.104 334.5,-977.104 330,-982.104 334.5,-972.104 334.5,-972.104"/>
</g>
<!-- 3387 -->
<g id="node47" class="node"><title>3387</title>
<g id="a_node47"><a xlink:href="https://kennysoft.kr/WzComparerR2/Quest/3387.html" xlink:title="칭호 &#45; 마가티아의 연금술사" target="_blank">
<polygon fill="#006699" stroke="white" points="1009,-36 836,-36 836,-0 1009,-0 1009,-36"/>
<text text-anchor="middle" x="922.5" y="-14.3" font-family="Helvetica,sans-Serif" font-size="14.00" fill="white">칭호 &#45; 마가티아의 연금술사</text>
</a>
</g>
</g>
<!-- 3386&#45;&gt;3387 -->
<g id="edge60" class="edge"><title>3386&#45;&gt;3387</title>
<path fill="none" stroke="white" stroke-dasharray="5,2" d="M922.5,-71.6966C922.5,-63.9827 922.5,-54.7125 922.5,-46.1124"/>
<polygon fill="white" stroke="white" points="922.5,-36.1043 927,-46.1043 922.5,-41.1043 922.5,-46.1043 922.5,-46.1043 922.5,-46.1043 922.5,-41.1043 918,-46.1044 922.5,-36.1043 922.5,-36.1043"/>
</g>
<!-- 3341 -->
<g id="node45" class="node"><title>3341</title>
<g id="a_node45"><a xlink:href="https://kennysoft.kr/WzComparerR2/Quest/3341.html" xlink:title="(Lv.93) 드랭의 비밀노트" target="_blank">
<polygon fill="#006699" stroke="white" points="413.5,-900 255.5,-900 255.5,-864 413.5,-864 413.5,-900"/>
<text text-anchor="middle" x="334.5" y="-878.3" font-family="Helvetica,sans-Serif" font-size="14.00" fill="white">(Lv.93) 드랭의 비밀노트</text>
</a>
</g>
</g>
<!-- 3341&#45;&gt;3342 -->
<g id="edge58" class="edge"><title>3341&#45;&gt;3342</title>
<path fill="none" stroke="white" stroke-dasharray="5,2" d="M334.5,-863.697C334.5,-855.983 334.5,-846.712 334.5,-838.112"/>
<polygon fill="white" stroke="white" points="334.5,-828.104 339,-838.104 334.5,-833.104 334.5,-838.104 334.5,-838.104 334.5,-838.104 334.5,-833.104 330,-838.104 334.5,-828.104 334.5,-828.104"/>
</g>
<!-- 3340&#45;&gt;3341 -->
<g id="edge61" class="edge"><title>3340&#45;&gt;3341</title>
<path fill="none" stroke="white" stroke-dasharray="5,2" d="M334.5,-935.697C334.5,-927.983 334.5,-918.712 334.5,-910.112"/>
<polygon fill="white" stroke="white" points="334.5,-900.104 339,-910.104 334.5,-905.104 334.5,-910.104 334.5,-910.104 334.5,-910.104 334.5,-905.104 330,-910.104 334.5,-900.104 334.5,-900.104"/>
</g>
</g>
</svg>
